<?xml version="1.0" standalone="no"?>
<svg viewBox="0 0 200 200" xmlns="http://www.w3.org/2000/svg">
  <path fill="#F2811D" d="M37.3,-68.3C45.6,-59.9,47.7,-44.3,54.9,-31.7C62,-19.2,74.2,-9.6,75.3,0.6C76.4,10.8,66.3,21.6,57.8,32C49.4,42.4,42.7,52.4,33.4,59C24,65.6,12,68.8,1.5,66.3C-9.1,63.8,-18.2,55.6,-31.8,51.4C-45.4,47.3,-63.4,47.2,-73.5,39.3C-83.6,31.4,-85.7,15.7,-79.9,3.3C-74.1,-9,-60.6,-18.1,-51.7,-28.1C-42.9,-38.1,-38.8,-49.1,-30.9,-57.7C-23.1,-66.4,-11.6,-72.7,1.5,-75.3C14.5,-77.8,29,-76.6,37.3,-68.3Z" transform="translate(100 100)" />
</svg>
